<svg xmlns="http://www.w3.org/2000/svg" width="128" height="128" viewBox="0 0 128 128" fill="none">
  <path d="M28 24a6 6 0 0 1 6-6h20a6 6 0 0 1 6 6v80a6 6 0 0 1-6 6H34a6 6 0 0 1-6-6V24Z" class="cover"/>
  <path d="M60 24a6 6 0 0 1 6-6h20a6 6 0 0 1 6 6v80a6 6 0 0 1-6 6H66a6 6 0 0 1-6-6V24Z" class="cover"/>
  <rect x="28" y="40" width="32" height="5" rx="2.5" class="line"/>
  <rect x="60" y="76" width="32" height="5" rx="2.5" class="line"/>
  <path d="M92 22.5l3.2-.8a6 6 0 0 1 7.2 4.4l18.8 72a6 6 0 0 1-4.4 7.2l-3.2.8a6 6 0 0 1-7.2-4.4L87.6 29.7a6 6 0 0 1 4.4-7.2Z" class="cover"/>
  <rect x="96" y="44" width="20" height="5" rx="2.5" transform="rotate(-14 96 44)" class="line"/>
  <rect x="100" y="76" width="15" height="5" rx="2.5" transform="rotate(-14 100 76)" class="line"/>
  <style>
    .cover { fill: #1a1a1a; }
    .line { fill: #faf7f2; }
    @media (prefers-color-scheme: dark) {
      .cover { fill: #f5f0e8; }
      .line { fill: #1a1a1a; }
    }
  </style>
</svg>
